<svg width="512" height="128" viewBox="0 0 512 128" fill="none" xmlns="http://www.w3.org/2000/svg">
<path d="M16.9291 61.767C16.9871 61.767 17.6251 60.781 18.8431 58.809C19.0171 58.809 19.3361 58.432 19.8001 57.678C20.3221 57.156 20.5831 56.634 20.5831 56.112L21.9751 54.198C21.9751 53.966 22.3231 53.444 23.0191 52.632C23.7731 51.182 24.7881 49.587 26.0641 47.847C26.7601 46.803 27.2241 46.107 27.4561 45.759C27.7461 45.353 27.9491 45.034 28.0651 44.802C28.2391 44.57 28.4131 44.367 28.5871 44.193H27.8911L26.1511 44.367C25.9191 44.367 25.5711 44.425 25.1071 44.541C20.5831 45.759 17.8281 46.339 16.8421 46.281C15.8561 46.223 15.0441 46.368 14.4061 46.716C13.4201 46.716 12.2021 46.861 10.7521 47.151C8.3161 47.151 6.6341 46.6 5.7061 45.498L4.8361 44.367L3.6181 42.018C3.4441 41.38 3.4731 40.365 3.7051 38.973C3.9371 38.393 4.4301 37.929 5.1841 37.581C5.9961 37.175 6.9531 36.972 8.0551 36.972C9.8531 36.972 12.0571 36.885 14.6671 36.711C17.2771 36.537 20.1481 36.392 23.2801 36.276C26.7021 36.276 31.6611 35.754 38.1571 34.71C38.7371 34.652 39.4621 34.884 40.3321 35.406C41.2021 35.928 41.8691 36.508 42.3331 37.146C42.6811 38.016 43.0871 38.77 43.5511 39.408C44.2471 41.09 43.7251 42.946 41.9851 44.976L39.8971 46.803C39.8391 46.803 39.4621 47.383 38.7661 48.543C34.0681 55.097 31.5161 58.577 31.1101 58.983C30.9941 59.215 30.6751 59.737 30.1531 60.549C29.6891 61.303 29.3411 61.883 29.1091 62.289L26.1511 65.856C26.1511 66.146 25.8901 66.755 25.3681 67.683L24.8461 68.031L22.2361 71.598L19.8001 75.165L18.2341 77.166L17.1901 78.906C17.1901 79.254 16.8421 79.921 16.1461 80.907C15.5081 81.893 14.9571 82.792 14.4931 83.604C14.0871 84.358 13.6811 85.054 13.2751 85.692L15.4501 85.344L19.4521 84.3C20.2641 84.3 21.3081 84.039 22.5841 83.517C23.1641 83.517 23.6571 83.488 24.0631 83.43C24.1791 83.314 24.7301 83.227 25.7161 83.169C25.8901 83.053 26.6731 82.879 28.0651 82.647C29.4571 82.415 30.3271 82.299 30.6751 82.299C31.4291 82.299 32.7631 82.154 34.6771 81.864C36.3011 81.748 37.3451 81.922 37.8091 82.386C39.1431 83.72 39.3751 85.46 38.5051 87.606C38.5051 87.722 38.2731 87.896 37.8091 88.128C34.4451 89.23 32.4441 89.868 31.8061 90.042C30.2981 90.332 29.0511 90.709 28.0651 91.173C27.8331 91.173 27.4851 91.289 27.0211 91.521C26.0351 91.985 24.7301 92.42 23.1061 92.826C19.6841 93.812 17.6541 94.392 17.0161 94.566C16.4361 94.798 15.2471 95.146 13.4491 95.61C11.7091 96.132 10.2591 96.451 9.0991 96.567C7.9391 96.683 6.4891 96.132 4.7491 94.914C4.2851 94.624 3.9951 94.363 3.8791 94.131L2.8351 92.565C1.3851 90.535 1.2981 88.534 2.5741 86.562C2.5741 86.446 2.7191 86.156 3.0091 85.692L5.1841 80.559L5.5321 78.906C5.5321 78.674 5.8511 78.181 6.4891 77.427C6.7211 76.905 7.0111 76.383 7.3591 75.861C7.7071 75.339 7.8811 75.049 7.8811 74.991C8.6351 73.831 9.3601 72.961 10.0561 72.381L11.1871 70.641L12.3181 69.249C12.3181 68.785 13.1011 67.712 14.6671 66.03C14.7831 65.74 15.2761 65.015 16.1461 63.855L16.9291 61.767ZM78.3518 69.51C78.4678 69.394 79.1348 69.278 80.3528 69.162C81.6288 68.988 83.1078 68.466 84.7898 67.596C84.8478 67.596 84.8188 66.9 84.7028 65.508C84.5288 63.072 84.3838 61.332 84.2678 60.288C84.1518 58.896 84.0358 57.91 83.9198 57.33C83.9198 56.228 83.4848 53.937 82.6148 50.457L78.7868 63.42C77.9748 67.016 77.6558 69.22 77.8298 70.032L78.3518 69.51ZM66.6068 72.033L67.1288 68.205C67.1288 67.451 67.2448 66.697 67.4768 65.943C67.4768 64.957 67.9698 63.478 68.9558 61.506C68.9558 61.39 69.2168 60.636 69.7388 59.244C69.7388 59.128 70.2898 57.417 71.3918 54.111L72.4358 51.588C72.4358 51.356 72.5808 50.921 72.8708 50.283C73.1608 49.587 73.3638 48.92 73.4798 48.282C73.6538 47.586 73.8568 46.919 74.0888 46.281C74.9008 44.715 75.6258 43.381 76.2638 42.279C77.4818 39.959 79.7438 38.915 83.0498 39.147L85.8338 39.408C87.5738 39.872 88.9078 40.365 89.8358 40.887C91.1698 41.409 92.0688 41.989 92.5328 42.627C92.9968 43.207 93.1998 44.193 93.1418 45.585C93.1998 46.281 93.3738 49.297 93.6638 54.633C93.9538 59.969 94.0988 62.666 94.0988 62.724L94.5338 66.465C94.5338 66.813 95.1718 70.989 96.4478 78.993L98.3618 85.083C99.5218 88.331 100.131 90.042 100.189 90.216C100.305 90.332 100.566 90.941 100.972 92.043C101.61 93.957 101.059 95.233 99.3188 95.871C97.7528 96.103 96.5928 95.958 95.8388 95.436C95.5488 95.436 94.8818 95.175 93.8378 94.653C93.7218 94.363 93.3738 94.073 92.7938 93.783C92.2718 93.551 91.9238 93.348 91.7498 93.174C91.1118 93 90.5318 92.101 90.0098 90.477C89.8358 90.361 89.5168 89.897 89.0528 89.085C88.6468 88.273 88.5308 87.606 88.7048 87.084C88.2988 86.562 88.0958 85.489 88.0958 83.865C87.5738 82.995 87.3128 81.632 87.3128 79.776C87.3128 77.92 87.0228 76.47 86.4428 75.426C83.4848 76.76 80.3238 77.485 76.9598 77.601C76.3218 77.601 76.0028 77.717 76.0028 77.949C76.0028 78.471 75.8288 79.399 75.4808 80.733L74.0018 90.303C74.5818 94.595 74.0598 96.857 72.4358 97.089C71.9718 97.089 71.1888 97.205 70.0868 97.437C69.0428 97.669 68.1728 97.466 67.4768 96.828C66.1428 96.074 65.1858 95.291 64.6058 94.479C64.0838 93.725 63.8518 92.855 63.9098 91.869C63.9678 91.057 64.1128 89.317 64.3448 86.649C64.4608 86.533 64.4898 85.895 64.4318 84.735C64.4318 83.517 64.5188 82.589 64.6928 81.951L66.0848 76.557C66.2588 76.441 66.4908 75.571 66.7808 73.947C66.7228 73.831 66.6938 73.541 66.6938 73.077L66.6068 72.033ZM127.743 64.899C127.743 64.841 127.859 64.348 128.091 63.42C127.917 62.724 128.033 61.999 128.439 61.245C128.439 60.317 128.584 59.476 128.874 58.722C129.338 58.432 129.483 57.968 129.309 57.33C129.309 56.982 129.425 56.547 129.657 56.025C129.889 55.503 130.005 54.865 130.005 54.111C130.121 53.879 130.208 53.56 130.266 53.154C130.382 52.69 130.527 52.197 130.701 51.675C130.875 51.095 131.049 50.37 131.223 49.5L131.658 48.369C132.064 47.847 132.267 47.296 132.267 46.716L132.963 45.324C132.963 44.802 133.253 44.164 133.833 43.41C134.355 42.888 134.703 42.366 134.877 41.844C135.167 40.974 135.979 40.104 137.313 39.234C137.487 39.118 138.183 38.915 139.401 38.625C140.677 38.277 141.431 38.132 141.663 38.19C141.953 38.19 142.272 38.248 142.62 38.364C142.968 38.422 143.258 38.509 143.49 38.625C143.78 38.683 144.128 38.799 144.534 38.973C144.94 39.089 145.259 39.176 145.491 39.234L146.448 40.017C146.448 40.075 146.477 40.133 146.535 40.191C147.115 40.771 147.405 41.786 147.405 43.236V45.15C147.347 45.73 147.318 46.426 147.318 47.238V48.804C147.318 49.5 147.347 49.993 147.405 50.283L147.318 52.284C147.376 52.806 147.376 53.415 147.318 54.111C147.26 54.749 147.231 55.329 147.231 55.851C147.289 56.315 147.289 56.982 147.231 57.852C147.347 57.91 147.405 58.635 147.405 60.027C147.405 61.361 147.347 62.376 147.231 63.072V65.421C147.347 66.001 147.376 67.509 147.318 69.945C147.434 70.525 147.463 70.931 147.405 71.163C147.637 74.063 147.753 75.716 147.753 76.122C147.811 76.528 147.898 76.934 148.014 77.34C148.13 77.688 148.217 78.21 148.275 78.906C148.333 79.544 148.42 79.979 148.536 80.211C148.652 80.385 148.855 80.414 149.145 80.298C149.435 80.182 149.696 79.776 149.928 79.08L150.537 77.862C150.711 76.876 150.972 76.151 151.32 75.687C151.32 75.513 151.523 74.962 151.929 74.034C152.103 74.034 152.335 73.715 152.625 73.077C152.973 72.439 153.234 71.83 153.408 71.25C153.814 70.554 154.017 70.061 154.017 69.771C155.525 65.769 156.453 63.391 156.801 62.637L157.149 61.245C157.671 60.259 158.048 59.157 158.28 57.939C158.57 57.475 158.802 56.895 158.976 56.199C159.208 55.445 159.382 54.981 159.498 54.807C159.498 54.401 160.049 52.632 161.151 49.5C161.325 49.384 161.47 49.094 161.586 48.63C161.702 48.166 162.079 47.122 162.717 45.498C162.949 44.396 163.268 43.41 163.674 42.54C164.486 40.858 165.646 39.495 167.154 38.451C167.154 38.103 167.618 37.871 168.546 37.755C169.532 37.581 170.17 37.697 170.46 38.103C170.518 38.161 170.808 38.248 171.33 38.364C171.852 38.422 172.49 38.683 173.244 39.147C174.056 39.611 174.549 40.22 174.723 40.974C174.549 41.09 174.404 41.902 174.288 43.41C174.23 44.86 174.172 45.817 174.114 46.281V49.674L174.027 51.849V61.941C173.969 62.289 173.94 63.072 173.94 64.29V68.031L174.027 73.773C174.027 74.817 174.056 75.6 174.114 76.122V80.82C174.114 81.632 174.201 82.27 174.375 82.734C174.317 83.024 174.375 84.213 174.549 86.301C174.897 87.867 174.955 88.766 174.723 88.998C174.607 90.158 174.114 91.289 173.244 92.391C172.954 92.681 172.49 92.855 171.852 92.913C170.402 93.029 168.778 92.014 166.98 89.868C166.11 88.65 165.53 87.722 165.24 87.084C165.124 87.084 164.863 86.707 164.457 85.953C164.341 85.953 164.254 85.547 164.196 84.735C164.138 84.735 163.819 82.299 163.239 77.427V75.774C163.297 74.962 163.384 74.324 163.5 73.86C163.616 73.338 163.645 72.613 163.587 71.685C163.703 71.337 163.761 70.844 163.761 70.206V68.727C163.819 68.669 163.877 68.118 163.935 67.074C163.993 66.03 163.993 65.276 163.935 64.812C163.935 64.348 163.935 63.855 163.935 63.333C163.993 62.811 164.022 62.492 164.022 62.376L164.109 61.245C164.109 60.723 163.993 60.23 163.761 59.766L162.978 62.376C162.978 62.782 162.63 63.826 161.934 65.508C161.238 67.19 160.89 68.089 160.89 68.205C160.774 68.321 160.571 68.814 160.281 69.684C160.049 70.554 159.672 71.743 159.15 73.251C159.15 73.773 158.86 74.614 158.28 75.774C158.28 76.18 157.874 77.398 157.062 79.428C156.25 81.574 155.67 83.343 155.322 84.735C155.032 86.069 154.51 87.432 153.756 88.824C153.64 89.404 153.437 89.897 153.147 90.303C152.567 91.405 151.697 91.753 150.537 91.347L149.232 91.173C149.058 91.231 148.652 91.173 148.014 90.999C147.898 91.115 147.405 91.115 146.535 90.999C144.331 90.245 143.084 89.868 142.794 89.868C141.982 89.868 141.257 89.23 140.619 87.954C140.503 87.374 140.358 86.736 140.184 86.04C139.778 84.3 139.517 82.792 139.401 81.516C139.517 81.4 139.43 80.037 139.14 77.427L139.053 72.903C138.879 72.729 138.879 72.294 139.053 71.598C139.053 71.25 139.082 70.844 139.14 70.38C139.024 69.8 139.024 69.017 139.14 68.031C139.024 67.045 138.966 66.407 138.966 66.117C139.024 65.769 139.024 65.363 138.966 64.899C138.966 64.377 139.024 63.536 139.14 62.376C139.082 62.26 138.966 61.796 138.792 60.984C138.676 60.172 138.56 59.592 138.444 59.244C138.444 59.302 138.27 59.621 137.922 60.201C137.806 60.491 137.429 61.622 136.791 63.594C136.791 64.754 136.733 65.421 136.617 65.595C136.559 65.769 136.472 66.117 136.356 66.639L135.66 70.293C135.66 70.583 135.428 71.424 134.964 72.816L133.659 77.166C133.717 77.166 133.746 77.195 133.746 77.253C133.746 77.253 133.688 77.775 133.572 78.819C133.456 78.935 133.166 80.037 132.702 82.125C132.354 83.169 132.093 84.764 131.919 86.91C131.745 88.998 131.6 90.245 131.484 90.651C131.426 91.057 131.397 91.55 131.397 92.13C131.397 93.232 131.136 94.044 130.614 94.566C130.208 95.378 129.193 95.842 127.569 95.958C125.539 95.494 124.35 94.798 124.002 93.87C123.828 93.232 123.625 92.768 123.393 92.478C123.103 91.492 122.987 90.68 123.045 90.042C123.393 86.562 123.683 84.822 123.915 84.822C123.973 84.648 124.002 84.213 124.002 83.517C123.828 82.995 123.973 82.386 124.437 81.69C124.379 81.284 124.495 80.791 124.785 80.211C125.017 80.211 125.046 79.515 124.872 78.123C124.872 77.833 125.046 77.224 125.394 76.296C125.394 76.064 125.423 75.774 125.481 75.426C125.597 75.02 125.684 74.585 125.742 74.121C125.858 72.961 126.032 72.178 126.264 71.772C126.032 70.902 126.438 69.133 127.482 66.465L127.743 64.899ZM231.161 42.627C231.335 43.381 231.19 43.903 230.726 44.193C230.32 44.483 229.856 44.628 229.334 44.628C228.812 44.628 227.507 44.686 225.419 44.802C224.143 45.034 222.809 45.44 221.417 46.02H221.33C221.33 46.948 221.04 48.572 220.46 50.892C220.46 51.588 220.286 52.777 219.938 54.459C219.938 54.865 219.851 55.329 219.677 55.851C219.503 56.373 219.416 57.156 219.416 58.2C219.01 60.636 218.865 62.115 218.981 62.637C218.517 65.073 218.285 66.929 218.285 68.205C218.285 69.423 218.14 70.496 217.85 71.424V72.381C217.966 74.585 217.879 76.151 217.589 77.079C217.357 78.007 217.241 78.79 217.241 79.428C217.241 80.066 217.096 81.052 216.806 82.386C216.516 83.72 216.429 85.315 216.545 87.171H217.067C218.517 87.055 219.3 87.026 219.416 87.084C219.532 87.084 219.938 86.997 220.634 86.823L222.026 86.91H222.896C223.07 86.91 223.447 87.142 224.027 87.606C225.303 88.65 225.854 89.462 225.68 90.042C225.506 90.564 224.839 91.26 223.679 92.13L222.026 92.652C221.852 92.884 221.417 93.116 220.721 93.348C220.083 93.58 219.532 93.696 219.068 93.696C217.734 93.986 216.922 94.45 216.632 95.088C216.458 95.61 215.095 95.813 212.543 95.697H209.585L207.932 96.219C206.482 96.799 205.206 96.944 204.104 96.654C203.002 96.364 202.248 96.132 201.842 95.958C201.494 95.842 201.059 95.552 200.537 95.088C200.015 94.682 199.783 94.16 199.841 93.522C199.957 92.942 200.16 92.13 200.45 91.086C201.494 90.274 202.19 89.781 202.538 89.607C202.886 89.375 203.495 89.143 204.365 88.911C205.235 88.679 206.395 88.244 207.845 87.606C207.845 85.576 207.787 84.387 207.671 84.039C207.845 83.981 208.048 82.676 208.28 80.124C208.338 79.892 208.193 79.312 207.845 78.384V77.862C208.019 76.122 207.99 74.556 207.758 73.164C207.758 73.106 207.874 72.033 208.106 69.945C208.396 69.597 208.396 68.611 208.106 66.987C208.338 65.769 208.541 64.87 208.715 64.29L208.802 62.985C208.802 62.637 208.976 61.535 209.324 59.679L209.498 58.026C210.484 53.734 211.18 50.428 211.586 48.108C211.122 48.224 210.832 48.282 210.716 48.282L207.845 48.804C205.641 49.442 203.698 48.92 202.016 47.238C200.566 45.092 200.566 43.294 202.016 41.844C202.828 41.032 203.814 40.568 204.974 40.452C206.134 40.278 207.468 39.814 208.976 39.06C209.44 39.06 210.803 38.393 213.065 37.059C215.153 36.711 216.4 36.537 216.806 36.537L220.982 36.015C221.504 35.957 222.2 36.015 223.07 36.189C223.94 36.305 224.462 36.479 224.636 36.711C225.506 36.943 226.434 37.32 227.42 37.842L229.508 39.843C230.32 41.119 230.871 42.047 231.161 42.627ZM263.768 70.815C264.116 74.991 264.29 77.601 264.29 78.645C265.334 81.893 266.784 84.155 268.64 85.431C268.814 85.605 269.481 85.895 270.641 86.301L272.903 86.736C273.251 86.736 273.541 86.62 273.773 86.388C274.063 86.33 274.353 86.156 274.643 85.866C275.049 85.344 275.455 84.88 275.861 84.474C276.267 84.068 276.412 83.865 276.296 83.865C276.528 83.633 276.615 83.256 276.557 82.734C276.673 82.618 276.905 82.212 277.253 81.516C277.775 78.268 278.326 76.18 278.906 75.252C279.022 72.294 279.08 70.67 279.08 70.38C279.022 67.828 278.268 64.841 276.818 61.419C276.238 60.839 275.803 58.287 275.513 53.763C275.165 52.893 274.962 52.139 274.904 51.501C274.846 50.805 274.614 50.022 274.208 49.152C273.86 48.282 273.599 47.702 273.425 47.412C273.251 47.122 273.135 46.89 273.077 46.716C272.961 45.73 272.526 45.121 271.772 44.889C270.902 44.541 269.8 45.585 268.466 48.021L267.77 49.152C267.712 49.442 267.48 49.935 267.074 50.631C267.074 50.747 266.813 51.849 266.291 53.937C265.827 55.967 265.508 57.33 265.334 58.026C265.16 58.722 265.102 59.186 265.16 59.418C265.218 59.65 264.928 60.839 264.29 62.985V64.986C264.348 65.102 264.261 65.711 264.029 66.813C263.855 67.857 263.768 69.191 263.768 70.815ZM261.071 39.93C261.129 39.64 261.738 39.147 262.898 38.451C264.116 37.755 265.16 37.233 266.03 36.885C268.466 35.957 271.627 36.015 275.513 37.059C276.209 37.233 277.137 37.726 278.297 38.538C278.413 38.538 278.558 38.596 278.732 38.712C279.37 39.06 279.805 39.292 280.037 39.408C281.023 39.93 282.067 41.119 283.169 42.975C284.329 44.831 284.938 46.136 284.996 46.89C285.112 47.586 285.46 48.833 286.04 50.631C286.91 52.719 287.345 54.343 287.345 55.503C287.403 56.605 287.606 58.026 287.954 59.766C288.36 61.448 288.534 62.753 288.476 63.681C288.476 71.743 287.664 77.688 286.04 81.516C285.692 84.126 285.083 85.779 284.213 86.475C283.807 89.375 282.705 91.26 280.907 92.13C280.733 92.304 279.544 92.623 277.34 93.087C273.976 93.783 271.627 94.189 270.293 94.305C269.017 94.479 267.625 94.363 266.117 93.957C264.667 93.551 263.739 93.319 263.333 93.261C262.927 93.261 262.231 92.971 261.245 92.391C259.215 91.173 258.026 90.187 257.678 89.433L256.808 88.041C251.936 91.347 251.791 91.028 256.373 87.084C255.677 86.446 255.068 85.344 254.546 83.778C254.314 82.56 254.024 81.69 253.676 81.168C253.328 80.414 253.038 79.747 252.806 79.167C252.864 78.761 252.893 78.036 252.893 76.992L252.806 76.122C252.516 75.194 252.545 74.353 252.893 73.599C252.951 73.193 252.98 72.729 252.98 72.207C252.98 71.685 253.038 70.757 253.154 69.423L253.067 68.292C253.531 66.668 253.734 65.508 253.676 64.812C253.618 64.058 253.676 63.014 253.85 61.68C254.024 60.346 254.082 59.331 254.024 58.635C254.024 57.881 254.14 57.214 254.372 56.634C254.604 55.996 254.749 55.59 254.807 55.416C254.807 55.3 254.865 55.097 254.981 54.807C254.865 53.357 255.242 51.994 256.112 50.718C256.866 48.804 257.272 47.702 257.33 47.412L258.461 44.889C259.331 42.627 260.201 40.974 261.071 39.93ZM341.563 76.731C341.389 76.093 341.534 74.672 341.998 72.468C341.998 71.076 342.056 69.974 342.172 69.162V67.422C342.404 63.014 342.52 60.288 342.52 59.244C342.52 55.938 342.81 53.473 343.39 51.849L343.477 50.109C343.477 49.297 343.506 48.485 343.564 47.673C343.68 46.803 343.68 46.281 343.564 46.107L344.695 42.279L344.869 41.148C344.985 40.974 345.449 40.481 346.261 39.669C346.435 39.495 347.102 39.437 348.262 39.495C349.422 39.495 350.35 39.582 351.046 39.756C351.51 39.756 351.829 39.901 352.003 40.191C352.177 40.423 352.322 40.974 352.438 41.844C352.728 42.482 352.786 43.439 352.612 44.715C352.67 45.005 352.699 45.295 352.699 45.585C352.699 45.817 352.67 46.078 352.612 46.368C352.728 47.354 352.67 48.543 352.438 49.935V52.11C352.438 52.98 352.322 53.995 352.09 55.155L352.003 57.33C352.003 58.142 351.887 58.838 351.655 59.418C351.655 60.056 351.481 61.245 351.133 62.985C351.133 63.913 351.075 64.493 350.959 64.725C350.901 64.899 350.959 65.624 351.133 66.9C350.959 68.64 350.93 70.003 351.046 70.989V72.729C351.046 75.455 350.93 77.282 350.698 78.21V78.732C350.698 79.834 350.611 80.675 350.437 81.255C350.553 82.589 350.495 84.01 350.263 85.518L350.089 87.606C349.277 91.724 347.334 94.015 344.26 94.479C340.548 95.001 337.59 93.87 335.386 91.086C335.212 90.68 335.067 90.245 334.951 89.781C334.661 89.723 334.429 89.578 334.255 89.346C333.501 88.186 332.399 85.547 330.949 81.429C330.543 80.617 330.34 80.037 330.34 79.689C329.876 78.761 329.644 78.036 329.644 77.514C329.18 76.586 328.948 75.89 328.948 75.426V74.034L328.165 72.033C328.165 71.627 328.078 71.018 327.904 70.206C327.324 67.48 326.947 64.957 326.773 62.637C326.599 60.317 326.483 58.954 326.425 58.548L325.99 60.462C325.758 62.724 325.497 64.522 325.207 65.856C324.743 68.292 324.511 70.438 324.511 72.294C324.395 73.338 324.337 74.237 324.337 74.991C324.221 75.339 324.163 75.774 324.163 76.296L323.902 82.212C323.554 84.416 323.467 86.997 323.641 89.955C323.583 91.637 323.235 92.739 322.597 93.261C321.959 93.841 321.089 94.131 319.987 94.131C319.059 93.841 317.957 93.377 316.681 92.739C316.333 92.565 316.072 92.13 315.898 91.434C315.782 90.68 315.637 90.129 315.463 89.781C314.651 88.969 314.187 88.041 314.071 86.997L313.375 80.907C313.375 80.385 313.433 79.428 313.549 78.036C313.723 76.586 313.781 75.426 313.723 74.556C313.665 73.686 313.868 72.381 314.332 70.641C314.738 69.655 314.941 68.64 314.941 67.596L315.55 60.549C315.55 59.563 315.666 58.809 315.898 58.287C315.898 57.649 315.985 56.924 316.159 56.112C316.043 55.88 316.13 55.445 316.42 54.807L316.768 53.502C316.768 53.096 316.884 52.429 317.116 51.501C317.406 50.573 317.609 49.5 317.725 48.282C318.015 46.194 319.146 44.164 321.118 42.192C321.582 41.902 322.075 41.177 322.597 40.017C323.061 39.437 323.815 38.915 324.859 38.451C325.961 37.639 327.121 37.726 328.339 38.712C330.601 39.582 331.935 41.177 332.341 43.497L332.602 45.672C332.602 45.962 332.834 46.745 333.298 48.021C333.298 48.485 333.385 49.326 333.559 50.544C333.559 51.24 333.733 52.081 334.081 53.067L335.212 59.331C335.386 59.621 335.589 60.172 335.821 60.984L336.43 63.333C336.546 64.609 336.72 65.653 336.952 66.465C337.242 67.277 337.503 68.147 337.735 69.075C338.025 70.003 338.373 71.192 338.779 72.642C339.185 74.092 339.533 75.455 339.823 76.731C340.171 77.949 340.606 79.051 341.128 80.037C341.244 79.805 341.302 79.08 341.302 77.862L341.563 76.731ZM395.508 93.522L393.768 93.348C392.55 93.116 391.825 92.565 391.593 91.695C391.593 91.463 391.361 91.231 390.897 90.999C390.549 90.999 390.114 90.709 389.592 90.129C389.07 89.491 388.78 88.36 388.722 86.736C388.722 85.054 388.722 83.343 388.722 81.603C388.722 79.863 388.751 78.906 388.809 78.732C388.983 78.732 388.983 78.384 388.809 77.688C388.577 75.426 388.548 73.889 388.722 73.077C388.896 72.207 389.012 69.336 389.07 64.464C389.128 59.592 388.925 57.04 388.461 56.808C388.403 56.692 388.2 56.692 387.852 56.808C387.504 56.866 387.243 56.982 387.069 57.156C386.605 58.084 386.315 58.548 386.199 58.548C385.967 58.78 385.677 59.012 385.329 59.244C384.285 60.462 382.661 60.81 380.457 60.288C378.891 60.056 377.876 59.737 377.412 59.331C377.006 58.925 376.745 58.345 376.629 57.591C376.513 56.779 376.832 56.112 377.586 55.59C379.094 54.546 380.167 53.386 380.805 52.11L382.023 50.718L382.98 50.022C382.98 49.906 383.154 49.703 383.502 49.413C383.85 49.123 384.198 48.833 384.546 48.543C384.952 48.195 385.155 47.876 385.155 47.586L386.025 46.194C386.605 45.614 386.895 45.092 386.895 44.628C386.953 44.628 387.156 44.454 387.504 44.106C387.852 43.758 388.171 43.497 388.461 43.323C388.867 42.511 389.679 41.438 390.897 40.104C391.651 39.002 392.028 38.451 392.028 38.451C392.086 38.393 392.202 38.306 392.376 38.19C392.608 38.074 392.898 37.958 393.246 37.842C393.594 37.668 393.942 37.465 394.29 37.233C394.696 37.001 395.015 36.885 395.247 36.885C395.537 36.827 396.175 36.856 397.161 36.972C398.147 37.088 398.64 37.204 398.64 37.32C398.64 37.436 398.727 37.639 398.901 37.929C399.075 38.161 399.278 38.277 399.51 38.277C399.742 38.277 400.003 38.48 400.293 38.886C400.525 38.886 401.047 39.089 401.859 39.495C402.323 40.075 402.584 40.51 402.642 40.8C402.294 40.974 402.12 41.322 402.12 41.844L401.337 48.978C400.583 52.226 400.032 59.853 399.684 71.859C399.452 73.599 399.336 74.991 399.336 76.035C399.336 77.021 399.22 78.587 398.988 80.733C398.756 82.879 398.64 84.996 398.64 87.084C398.64 89.172 398.582 90.564 398.466 91.26C398.06 92.942 397.074 93.696 395.508 93.522ZM449.497 70.119L449.671 67.335C449.903 65.305 449.758 62.405 449.236 58.635C449.178 56.605 448.946 55.068 448.54 54.024C448.134 52.922 447.293 51.385 446.017 49.413C444.973 48.485 444.451 47.876 444.451 47.586C443.813 46.948 443.059 47.412 442.189 48.978C441.957 49.848 440.826 52.342 438.796 56.46C438.97 56.924 438.796 57.417 438.274 57.939C438.158 58.113 438.1 58.461 438.1 58.983C438.274 59.331 438.332 59.824 438.274 60.462C438.1 61.042 437.926 63.478 437.752 67.77C437.752 70.206 437.955 71.946 438.361 72.99C438.361 74.962 438.477 76.528 438.709 77.688C438.651 79.312 438.767 80.588 439.057 81.516C439.869 83.43 440.739 84.387 441.667 84.387C442.595 84.387 443.61 83.633 444.712 82.125C445.872 80.617 446.771 78.761 447.409 76.557C447.351 76.093 447.438 75.861 447.67 75.861C447.67 75.455 447.815 74.788 448.105 73.86C448.453 72.874 448.627 72.207 448.627 71.859L449.497 70.119ZM429.226 51.762L429.487 49.935C429.487 49.529 429.777 48.978 430.357 48.282C430.705 47.354 430.85 46.745 430.792 46.455C430.792 46.165 431.082 45.411 431.662 44.193C432.3 42.917 432.88 42.047 433.402 41.583C433.924 41.061 434.417 40.452 434.881 39.756C434.881 39.466 435.055 39.147 435.403 38.799C435.809 38.451 436.215 38.248 436.621 38.19C437.955 37.726 438.97 37.61 439.666 37.842C441.464 38.538 442.537 38.683 442.885 38.277C443.001 38.103 443.581 37.929 444.625 37.755C445.727 37.523 446.481 37.436 446.887 37.494C447.351 37.494 447.844 37.697 448.366 38.103C450.396 39.089 452.397 41.003 454.369 43.845C456.399 46.687 457.82 49.674 458.632 52.806C459.908 56.75 460.343 60.636 459.937 64.464C459.531 68.814 458.603 73.193 457.153 77.601C455.703 82.009 454.804 84.532 454.456 85.17C454.166 85.808 453.905 86.301 453.673 86.649C453.499 86.939 453.383 87.287 453.325 87.693C453.267 88.041 452.832 88.679 452.02 89.607C451.208 90.535 450.599 91.057 450.193 91.173C448.569 92.449 447.119 93.116 445.843 93.174C445.553 93.232 445.06 93.232 444.364 93.174C443.726 93.174 443.146 93.174 442.624 93.174C442.102 93.174 441.696 93.232 441.406 93.348C440.362 93.232 439.521 93.174 438.883 93.174C438.303 93.232 437.462 93 436.36 92.478C434.62 91.376 433.228 90.013 432.184 88.389C431.952 87.403 431.633 86.707 431.227 86.301L430.357 84.387C429.719 83.981 429.342 82.734 429.226 80.646C427.428 75.426 426.993 67.132 427.921 55.764C427.921 55.01 428.124 54.633 428.53 54.633C428.704 54.343 428.762 53.995 428.704 53.589C428.704 53.183 428.878 52.574 429.226 51.762ZM501.539 93.522L499.799 93.348C498.581 93.116 497.856 92.565 497.624 91.695C497.624 91.463 497.392 91.231 496.928 90.999C496.58 90.999 496.145 90.709 495.623 90.129C495.101 89.491 494.811 88.36 494.753 86.736C494.753 85.054 494.753 83.343 494.753 81.603C494.753 79.863 494.782 78.906 494.84 78.732C495.014 78.732 495.014 78.384 494.84 77.688C494.608 75.426 494.579 73.889 494.753 73.077C494.927 72.207 495.043 69.336 495.101 64.464C495.159 59.592 494.956 57.04 494.492 56.808C494.434 56.692 494.231 56.692 493.883 56.808C493.535 56.866 493.274 56.982 493.1 57.156C492.636 58.084 492.346 58.548 492.23 58.548C491.998 58.78 491.708 59.012 491.36 59.244C490.316 60.462 488.692 60.81 486.488 60.288C484.922 60.056 483.907 59.737 483.443 59.331C483.037 58.925 482.776 58.345 482.66 57.591C482.544 56.779 482.863 56.112 483.617 55.59C485.125 54.546 486.198 53.386 486.836 52.11L488.054 50.718L489.011 50.022C489.011 49.906 489.185 49.703 489.533 49.413C489.881 49.123 490.229 48.833 490.577 48.543C490.983 48.195 491.186 47.876 491.186 47.586L492.056 46.194C492.636 45.614 492.926 45.092 492.926 44.628C492.984 44.628 493.187 44.454 493.535 44.106C493.883 43.758 494.202 43.497 494.492 43.323C494.898 42.511 495.71 41.438 496.928 40.104C497.682 39.002 498.059 38.451 498.059 38.451C498.117 38.393 498.233 38.306 498.407 38.19C498.639 38.074 498.929 37.958 499.277 37.842C499.625 37.668 499.973 37.465 500.321 37.233C500.727 37.001 501.046 36.885 501.278 36.885C501.568 36.827 502.206 36.856 503.192 36.972C504.178 37.088 504.671 37.204 504.671 37.32C504.671 37.436 504.758 37.639 504.932 37.929C505.106 38.161 505.309 38.277 505.541 38.277C505.773 38.277 506.034 38.48 506.324 38.886C506.556 38.886 507.078 39.089 507.89 39.495C508.354 40.075 508.615 40.51 508.673 40.8C508.325 40.974 508.151 41.322 508.151 41.844L507.368 48.978C506.614 52.226 506.063 59.853 505.715 71.859C505.483 73.599 505.367 74.991 505.367 76.035C505.367 77.021 505.251 78.587 505.019 80.733C504.787 82.879 504.671 84.996 504.671 87.084C504.671 89.172 504.613 90.564 504.497 91.26C504.091 92.942 503.105 93.696 501.539 93.522Z" fill="white"/>
</svg>
