<svg width="1024" height="256" viewBox="0 0 1024 256" fill="none" xmlns="http://www.w3.org/2000/svg">
<rect width="1024" height="256" fill="black"/>
<path d="M33.8582 123.534C33.9742 123.534 35.2502 121.562 37.6862 117.618C38.0342 117.618 38.6722 116.864 39.6002 115.356C40.6442 114.312 41.1662 113.268 41.1662 112.224L43.9502 108.396C43.9502 107.932 44.6462 106.888 46.0382 105.264C47.5462 102.364 49.5762 99.174 52.1282 95.694C53.5202 93.606 54.4482 92.214 54.9122 91.518C55.4922 90.706 55.8982 90.068 56.1302 89.604C56.4782 89.14 56.8262 88.734 57.1742 88.386H55.7822L52.3022 88.734C51.8382 88.734 51.1422 88.85 50.2142 89.082C41.1662 91.518 35.6562 92.678 33.6842 92.562C31.7122 92.446 30.0882 92.736 28.8122 93.432C26.8402 93.432 24.4042 93.722 21.5042 94.302C16.6322 94.302 13.2682 93.2 11.4122 90.996L9.6722 88.734L7.2362 84.036C6.8882 82.76 6.9462 80.73 7.4102 77.946C7.8742 76.786 8.8602 75.858 10.3682 75.162C11.9922 74.35 13.9062 73.944 16.1102 73.944C19.7062 73.944 24.1142 73.77 29.3342 73.422C34.5542 73.074 40.2962 72.784 46.5602 72.552C53.4042 72.552 63.3222 71.508 76.3142 69.42C77.4742 69.304 78.9242 69.768 80.6642 70.812C82.4042 71.856 83.7382 73.016 84.6662 74.292C85.3622 76.032 86.1742 77.54 87.1022 78.816C88.4942 82.18 87.4502 85.892 83.9702 89.952L79.7942 93.606C79.6782 93.606 78.9242 94.766 77.5322 97.086C68.1362 110.194 63.0322 117.154 62.2202 117.966C61.9882 118.43 61.3502 119.474 60.3062 121.098C59.3782 122.606 58.6822 123.766 58.2182 124.578L52.3022 131.712C52.3022 132.292 51.7802 133.51 50.7362 135.366L49.6922 136.062L44.4722 143.196L39.6002 150.33L36.4682 154.332L34.3802 157.812C34.3802 158.508 33.6842 159.842 32.2922 161.814C31.0162 163.786 29.9142 165.584 28.9862 167.208C28.1742 168.716 27.3622 170.108 26.5502 171.384L30.9002 170.688L38.9042 168.6C40.5282 168.6 42.6162 168.078 45.1682 167.034C46.3282 167.034 47.3142 166.976 48.1262 166.86C48.3582 166.628 49.4602 166.454 51.4322 166.338C51.7802 166.106 53.3462 165.758 56.1302 165.294C58.9142 164.83 60.6542 164.598 61.3502 164.598C62.8582 164.598 65.5262 164.308 69.3542 163.728C72.6022 163.496 74.6902 163.844 75.6182 164.772C78.2862 167.44 78.7502 170.92 77.0102 175.212C77.0102 175.444 76.5462 175.792 75.6182 176.256C68.8902 178.46 64.8882 179.736 63.6122 180.084C60.5962 180.664 58.1022 181.418 56.1302 182.346C55.6662 182.346 54.9702 182.578 54.0422 183.042C52.0702 183.97 49.4602 184.84 46.2122 185.652C39.3682 187.624 35.3082 188.784 34.0322 189.132C32.8722 189.596 30.4942 190.292 26.8982 191.22C23.4182 192.264 20.5182 192.902 18.1982 193.134C15.8782 193.366 12.9782 192.264 9.4982 189.828C8.5702 189.248 7.9902 188.726 7.7582 188.262L5.6702 185.13C2.7702 181.07 2.5962 177.068 5.1482 173.124C5.1482 172.892 5.4382 172.312 6.0182 171.384L10.3682 161.118L11.0642 157.812C11.0642 157.348 11.7022 156.362 12.9782 154.854C13.4422 153.81 14.0222 152.766 14.7182 151.722C15.4142 150.678 15.7622 150.098 15.7622 149.982C17.2702 147.662 18.7202 145.922 20.1122 144.762L22.3742 141.282L24.6362 138.498C24.6362 137.57 26.2022 135.424 29.3342 132.06C29.5662 131.48 30.5522 130.03 32.2922 127.71L33.8582 123.534ZM156.704 139.02C156.936 138.788 158.27 138.556 160.706 138.324C163.258 137.976 166.216 136.932 169.58 135.192C169.696 135.192 169.638 133.8 169.406 131.016C169.058 126.144 168.768 122.664 168.536 120.576C168.304 117.792 168.072 115.82 167.84 114.66C167.84 112.456 166.97 107.874 165.23 100.914L157.574 126.84C155.95 134.032 155.312 138.44 155.66 140.064L156.704 139.02ZM133.214 144.066L134.258 136.41C134.258 134.902 134.49 133.394 134.954 131.886C134.954 129.914 135.94 126.956 137.912 123.012C137.912 122.78 138.434 121.272 139.478 118.488C139.478 118.256 140.58 114.834 142.784 108.222L144.872 103.176C144.872 102.712 145.162 101.842 145.742 100.566C146.322 99.174 146.728 97.84 146.96 96.564C147.308 95.172 147.714 93.838 148.178 92.562C149.802 89.43 151.252 86.762 152.528 84.558C154.964 79.918 159.488 77.83 166.1 78.294L171.668 78.816C175.148 79.744 177.816 80.73 179.672 81.774C182.34 82.818 184.138 83.978 185.066 85.254C185.994 86.414 186.4 88.386 186.284 91.17C186.4 92.562 186.748 98.594 187.328 109.266C187.908 119.938 188.198 125.332 188.198 125.448L189.068 132.93C189.068 133.626 190.344 141.978 192.896 157.986L196.724 170.166C199.044 176.662 200.262 180.084 200.378 180.432C200.61 180.664 201.132 181.882 201.944 184.086C203.22 187.914 202.118 190.466 198.638 191.742C195.506 192.206 193.186 191.916 191.678 190.872C191.098 190.872 189.764 190.35 187.676 189.306C187.444 188.726 186.748 188.146 185.588 187.566C184.544 187.102 183.848 186.696 183.5 186.348C182.224 186 181.064 184.202 180.02 180.954C179.672 180.722 179.034 179.794 178.106 178.17C177.294 176.546 177.062 175.212 177.41 174.168C176.598 173.124 176.192 170.978 176.192 167.73C175.148 165.99 174.626 163.264 174.626 159.552C174.626 155.84 174.046 152.94 172.886 150.852C166.97 153.52 160.648 154.97 153.92 155.202C152.644 155.202 152.006 155.434 152.006 155.898C152.006 156.942 151.658 158.798 150.962 161.466L148.004 180.606C149.164 189.19 148.12 193.714 144.872 194.178C143.944 194.178 142.378 194.41 140.174 194.874C138.086 195.338 136.346 194.932 134.954 193.656C132.286 192.148 130.372 190.582 129.212 188.958C128.168 187.45 127.704 185.71 127.82 183.738C127.936 182.114 128.226 178.634 128.69 173.298C128.922 173.066 128.98 171.79 128.864 169.47C128.864 167.034 129.038 165.178 129.386 163.902L132.17 153.114C132.518 152.882 132.982 151.142 133.562 147.894C133.446 147.662 133.388 147.082 133.388 146.154L133.214 144.066ZM255.485 129.798C255.485 129.682 255.717 128.696 256.181 126.84C255.833 125.448 256.065 123.998 256.877 122.49C256.877 120.634 257.167 118.952 257.747 117.444C258.675 116.864 258.965 115.936 258.617 114.66C258.617 113.964 258.849 113.094 259.313 112.05C259.777 111.006 260.009 109.73 260.009 108.222C260.241 107.758 260.415 107.12 260.531 106.308C260.763 105.38 261.053 104.394 261.401 103.35C261.749 102.19 262.097 100.74 262.445 99L263.315 96.738C264.127 95.694 264.533 94.592 264.533 93.432L265.925 90.648C265.925 89.604 266.505 88.328 267.665 86.82C268.709 85.776 269.405 84.732 269.753 83.688C270.333 81.948 271.957 80.208 274.625 78.468C274.973 78.236 276.365 77.83 278.801 77.25C281.353 76.554 282.861 76.264 283.325 76.38C283.905 76.38 284.543 76.496 285.239 76.728C285.935 76.844 286.515 77.018 286.979 77.25C287.559 77.366 288.255 77.598 289.067 77.946C289.879 78.178 290.517 78.352 290.981 78.468L292.895 80.034C292.895 80.15 292.953 80.266 293.069 80.382C294.229 81.542 294.809 83.572 294.809 86.472V90.3C294.693 91.46 294.635 92.852 294.635 94.476V97.608C294.635 99 294.693 99.986 294.809 100.566L294.635 104.568C294.751 105.612 294.751 106.83 294.635 108.222C294.519 109.498 294.461 110.658 294.461 111.702C294.577 112.63 294.577 113.964 294.461 115.704C294.693 115.82 294.809 117.27 294.809 120.054C294.809 122.722 294.693 124.752 294.461 126.144V130.842C294.693 132.002 294.751 135.018 294.635 139.89C294.867 141.05 294.925 141.862 294.809 142.326C295.273 148.126 295.505 151.432 295.505 152.244C295.621 153.056 295.795 153.868 296.027 154.68C296.259 155.376 296.433 156.42 296.549 157.812C296.665 159.088 296.839 159.958 297.071 160.422C297.303 160.77 297.709 160.828 298.289 160.596C298.869 160.364 299.391 159.552 299.855 158.16L301.073 155.724C301.421 153.752 301.943 152.302 302.639 151.374C302.639 151.026 303.045 149.924 303.857 148.068C304.205 148.068 304.669 147.43 305.249 146.154C305.945 144.878 306.467 143.66 306.815 142.5C307.627 141.108 308.033 140.122 308.033 139.542C311.049 131.538 312.905 126.782 313.601 125.274L314.297 122.49C315.341 120.518 316.095 118.314 316.559 115.878C317.139 114.95 317.603 113.79 317.951 112.398C318.415 110.89 318.763 109.962 318.995 109.614C318.995 108.802 320.097 105.264 322.301 99C322.649 98.768 322.939 98.188 323.171 97.26C323.403 96.332 324.157 94.244 325.433 90.996C325.897 88.792 326.535 86.82 327.347 85.08C328.971 81.716 331.291 78.99 334.307 76.902C334.307 76.206 335.235 75.742 337.091 75.51C339.063 75.162 340.339 75.394 340.919 76.206C341.035 76.322 341.615 76.496 342.659 76.728C343.703 76.844 344.979 77.366 346.487 78.294C348.111 79.222 349.097 80.44 349.445 81.948C349.097 82.18 348.807 83.804 348.575 86.82C348.459 89.72 348.343 91.634 348.227 92.562V99.348L348.053 103.698V123.882C347.937 124.578 347.879 126.144 347.879 128.58V136.062L348.053 147.546C348.053 149.634 348.111 151.2 348.227 152.244V161.64C348.227 163.264 348.401 164.54 348.749 165.468C348.633 166.048 348.749 168.426 349.097 172.602C349.793 175.734 349.909 177.532 349.445 177.996C349.213 180.316 348.227 182.578 346.487 184.782C345.907 185.362 344.979 185.71 343.703 185.826C340.803 186.058 337.555 184.028 333.959 179.736C332.219 177.3 331.059 175.444 330.479 174.168C330.247 174.168 329.725 173.414 328.913 171.906C328.681 171.906 328.507 171.094 328.391 169.47C328.275 169.47 327.637 164.598 326.477 154.854V151.548C326.593 149.924 326.767 148.648 326.999 147.72C327.231 146.676 327.289 145.226 327.173 143.37C327.405 142.674 327.521 141.688 327.521 140.412V137.454C327.637 137.338 327.753 136.236 327.869 134.148C327.985 132.06 327.985 130.552 327.869 129.624C327.869 128.696 327.869 127.71 327.869 126.666C327.985 125.622 328.043 124.984 328.043 124.752L328.217 122.49C328.217 121.446 327.985 120.46 327.521 119.532L325.955 124.752C325.955 125.564 325.259 127.652 323.867 131.016C322.475 134.38 321.779 136.178 321.779 136.41C321.547 136.642 321.141 137.628 320.561 139.368C320.097 141.108 319.343 143.486 318.299 146.502C318.299 147.546 317.719 149.228 316.559 151.548C316.559 152.36 315.747 154.796 314.123 158.856C312.499 163.148 311.339 166.686 310.643 169.47C310.063 172.138 309.019 174.864 307.511 177.648C307.279 178.808 306.873 179.794 306.293 180.606C305.133 182.81 303.393 183.506 301.073 182.694L298.463 182.346C298.115 182.462 297.303 182.346 296.027 181.998C295.795 182.23 294.809 182.23 293.069 181.998C288.661 180.49 286.167 179.736 285.587 179.736C283.963 179.736 282.513 178.46 281.237 175.908C281.005 174.748 280.715 173.472 280.367 172.08C279.555 168.6 279.033 165.584 278.801 163.032C279.033 162.8 278.859 160.074 278.279 154.854L278.105 145.806C277.757 145.458 277.757 144.588 278.105 143.196C278.105 142.5 278.163 141.688 278.279 140.76C278.047 139.6 278.047 138.034 278.279 136.062C278.047 134.09 277.931 132.814 277.931 132.234C278.047 131.538 278.047 130.726 277.931 129.798C277.931 128.754 278.047 127.072 278.279 124.752C278.163 124.52 277.931 123.592 277.583 121.968C277.351 120.344 277.119 119.184 276.887 118.488C276.887 118.604 276.539 119.242 275.843 120.402C275.611 120.982 274.857 123.244 273.581 127.188C273.581 129.508 273.465 130.842 273.233 131.19C273.117 131.538 272.943 132.234 272.711 133.278L271.319 140.586C271.319 141.166 270.855 142.848 269.927 145.632L267.317 154.332C267.433 154.332 267.491 154.39 267.491 154.506C267.491 154.506 267.375 155.55 267.143 157.638C266.911 157.87 266.331 160.074 265.403 164.25C264.707 166.338 264.185 169.528 263.837 173.82C263.489 177.996 263.199 180.49 262.967 181.302C262.851 182.114 262.793 183.1 262.793 184.26C262.793 186.464 262.271 188.088 261.227 189.132C260.415 190.756 258.385 191.684 255.137 191.916C251.077 190.988 248.699 189.596 248.003 187.74C247.655 186.464 247.249 185.536 246.785 184.956C246.205 182.984 245.973 181.36 246.089 180.084C246.785 173.124 247.365 169.644 247.829 169.644C247.945 169.296 248.003 168.426 248.003 167.034C247.655 165.99 247.945 164.772 248.873 163.38C248.757 162.568 248.989 161.582 249.569 160.422C250.033 160.422 250.091 159.03 249.743 156.246C249.743 155.666 250.091 154.448 250.787 152.592C250.787 152.128 250.845 151.548 250.961 150.852C251.193 150.04 251.367 149.17 251.483 148.242C251.715 145.922 252.063 144.356 252.527 143.544C252.063 141.804 252.875 138.266 254.963 132.93L255.485 129.798ZM462.322 85.254C462.67 86.762 462.38 87.806 461.452 88.386C460.64 88.966 459.712 89.256 458.668 89.256C457.624 89.256 455.014 89.372 450.838 89.604C448.286 90.068 445.618 90.88 442.834 92.04H442.66C442.66 93.896 442.08 97.144 440.92 101.784C440.92 103.176 440.572 105.554 439.876 108.918C439.876 109.73 439.702 110.658 439.354 111.702C439.006 112.746 438.832 114.312 438.832 116.4C438.02 121.272 437.73 124.23 437.962 125.274C437.034 130.146 436.57 133.858 436.57 136.41C436.57 138.846 436.28 140.992 435.7 142.848V144.762C435.932 149.17 435.758 152.302 435.178 154.158C434.714 156.014 434.482 157.58 434.482 158.856C434.482 160.132 434.192 162.104 433.612 164.772C433.032 167.44 432.858 170.63 433.09 174.342H434.134C437.034 174.11 438.6 174.052 438.832 174.168C439.064 174.168 439.876 173.994 441.268 173.646L444.052 173.82H445.792C446.14 173.82 446.894 174.284 448.054 175.212C450.606 177.3 451.708 178.924 451.36 180.084C451.012 181.128 449.678 182.52 447.358 184.26L444.052 185.304C443.704 185.768 442.834 186.232 441.442 186.696C440.166 187.16 439.064 187.392 438.136 187.392C435.468 187.972 433.844 188.9 433.264 190.176C432.916 191.22 430.19 191.626 425.086 191.394H419.17L415.864 192.438C412.964 193.598 410.412 193.888 408.208 193.308C406.004 192.728 404.496 192.264 403.684 191.916C402.988 191.684 402.118 191.104 401.074 190.176C400.03 189.364 399.566 188.32 399.682 187.044C399.914 185.884 400.32 184.26 400.9 182.172C402.988 180.548 404.38 179.562 405.076 179.214C405.772 178.75 406.99 178.286 408.73 177.822C410.47 177.358 412.79 176.488 415.69 175.212C415.69 171.152 415.574 168.774 415.342 168.078C415.69 167.962 416.096 165.352 416.56 160.248C416.676 159.784 416.386 158.624 415.69 156.768V155.724C416.038 152.244 415.98 149.112 415.516 146.328C415.516 146.212 415.748 144.066 416.212 139.89C416.792 139.194 416.792 137.222 416.212 133.974C416.676 131.538 417.082 129.74 417.43 128.58L417.604 125.97C417.604 125.274 417.952 123.07 418.648 119.358L418.996 116.052C420.968 107.468 422.36 100.856 423.172 96.216C422.244 96.448 421.664 96.564 421.432 96.564L415.69 97.608C411.282 98.884 407.396 97.84 404.032 94.476C401.132 90.184 401.132 86.588 404.032 83.688C405.656 82.064 407.628 81.136 409.948 80.904C412.268 80.556 414.936 79.628 417.952 78.12C418.88 78.12 421.606 76.786 426.13 74.118C430.306 73.422 432.8 73.074 433.612 73.074L441.964 72.03C443.008 71.914 444.4 72.03 446.14 72.378C447.88 72.61 448.924 72.958 449.272 73.422C451.012 73.886 452.868 74.64 454.84 75.684L459.016 79.686C460.64 82.238 461.742 84.094 462.322 85.254ZM527.537 141.63C528.233 149.982 528.581 155.202 528.581 157.29C530.669 163.786 533.569 168.31 537.281 170.862C537.629 171.21 538.963 171.79 541.283 172.602L545.807 173.472C546.503 173.472 547.083 173.24 547.547 172.776C548.127 172.66 548.707 172.312 549.287 171.732C550.099 170.688 550.911 169.76 551.723 168.948C552.535 168.136 552.825 167.73 552.593 167.73C553.057 167.266 553.231 166.512 553.115 165.468C553.347 165.236 553.811 164.424 554.507 163.032C555.551 156.536 556.653 152.36 557.813 150.504C558.045 144.588 558.161 141.34 558.161 140.76C558.045 135.656 556.537 129.682 553.637 122.838C552.477 121.678 551.607 116.574 551.027 107.526C550.331 105.786 549.925 104.278 549.809 103.002C549.693 101.61 549.229 100.044 548.417 98.304C547.721 96.564 547.199 95.404 546.851 94.824C546.503 94.244 546.271 93.78 546.155 93.432C545.923 91.46 545.053 90.242 543.545 89.778C541.805 89.082 539.601 91.17 536.933 96.042L535.541 98.304C535.425 98.884 534.961 99.87 534.149 101.262C534.149 101.494 533.627 103.698 532.583 107.874C531.655 111.934 531.017 114.66 530.669 116.052C530.321 117.444 530.205 118.372 530.321 118.836C530.437 119.3 529.857 121.678 528.581 125.97V129.972C528.697 130.204 528.523 131.422 528.059 133.626C527.711 135.714 527.537 138.382 527.537 141.63ZM522.143 79.86C522.259 79.28 523.477 78.294 525.797 76.902C528.233 75.51 530.321 74.466 532.061 73.77C536.933 71.914 543.255 72.03 551.027 74.118C552.419 74.466 554.275 75.452 556.595 77.076C556.827 77.076 557.117 77.192 557.465 77.424C558.741 78.12 559.611 78.584 560.075 78.816C562.047 79.86 564.135 82.238 566.339 85.95C568.659 89.662 569.877 92.272 569.993 93.78C570.225 95.172 570.921 97.666 572.081 101.262C573.821 105.438 574.691 108.686 574.691 111.006C574.807 113.21 575.213 116.052 575.909 119.532C576.721 122.896 577.069 125.506 576.953 127.362C576.953 143.486 575.329 155.376 572.081 163.032C571.385 168.252 570.167 171.558 568.427 172.95C567.615 178.75 565.411 182.52 561.815 184.26C561.467 184.608 559.089 185.246 554.681 186.174C547.953 187.566 543.255 188.378 540.587 188.61C538.035 188.958 535.251 188.726 532.235 187.914C529.335 187.102 527.479 186.638 526.667 186.522C525.855 186.522 524.463 185.942 522.491 184.782C518.431 182.346 516.053 180.374 515.357 178.866L513.617 176.082C503.873 182.694 503.583 182.056 512.747 174.168C511.355 172.892 510.137 170.688 509.093 167.556C508.629 165.12 508.049 163.38 507.353 162.336C506.657 160.828 506.077 159.494 505.613 158.334C505.729 157.522 505.787 156.072 505.787 153.984L505.613 152.244C505.033 150.388 505.091 148.706 505.787 147.198C505.903 146.386 505.961 145.458 505.961 144.414C505.961 143.37 506.077 141.514 506.309 138.846L506.135 136.584C507.063 133.336 507.469 131.016 507.353 129.624C507.237 128.116 507.353 126.028 507.701 123.36C508.049 120.692 508.165 118.662 508.049 117.27C508.049 115.762 508.281 114.428 508.745 113.268C509.209 111.992 509.499 111.18 509.615 110.832C509.615 110.6 509.731 110.194 509.963 109.614C509.731 106.714 510.485 103.988 512.225 101.436C513.733 97.608 514.545 95.404 514.661 94.824L516.923 89.778C518.663 85.254 520.403 81.948 522.143 79.86ZM683.127 153.462C682.779 152.186 683.069 149.344 683.997 144.936C683.997 142.152 684.113 139.948 684.345 138.324V134.844C684.809 126.028 685.041 120.576 685.041 118.488C685.041 111.876 685.621 106.946 686.781 103.698L686.955 100.218C686.955 98.594 687.013 96.97 687.129 95.346C687.361 93.606 687.361 92.562 687.129 92.214L689.391 84.558L689.739 82.296C689.971 81.948 690.899 80.962 692.523 79.338C692.871 78.99 694.205 78.874 696.525 78.99C698.845 78.99 700.701 79.164 702.093 79.512C703.021 79.512 703.659 79.802 704.007 80.382C704.355 80.846 704.645 81.948 704.877 83.688C705.457 84.964 705.573 86.878 705.225 89.43C705.341 90.01 705.399 90.59 705.399 91.17C705.399 91.634 705.341 92.156 705.225 92.736C705.457 94.708 705.341 97.086 704.877 99.87V104.22C704.877 105.96 704.645 107.99 704.181 110.31L704.007 114.66C704.007 116.284 703.775 117.676 703.311 118.836C703.311 120.112 702.963 122.49 702.267 125.97C702.267 127.826 702.151 128.986 701.919 129.45C701.803 129.798 701.919 131.248 702.267 133.8C701.919 137.28 701.861 140.006 702.093 141.978V145.458C702.093 150.91 701.861 154.564 701.397 156.42V157.464C701.397 159.668 701.223 161.35 700.875 162.51C701.107 165.178 700.991 168.02 700.527 171.036L700.179 175.212C698.555 183.448 694.669 188.03 688.521 188.958C681.097 190.002 675.181 187.74 670.773 182.172C670.425 181.36 670.135 180.49 669.903 179.562C669.323 179.446 668.859 179.156 668.511 178.692C667.003 176.372 664.799 171.094 661.899 162.858C661.087 161.234 660.681 160.074 660.681 159.378C659.753 157.522 659.289 156.072 659.289 155.028C658.361 153.172 657.897 151.78 657.897 150.852V148.068L656.331 144.066C656.331 143.254 656.157 142.036 655.809 140.412C654.649 134.96 653.895 129.914 653.547 125.274C653.199 120.634 652.967 117.908 652.851 117.096L651.981 120.924C651.517 125.448 650.995 129.044 650.415 131.712C649.487 136.584 649.023 140.876 649.023 144.588C648.791 146.676 648.675 148.474 648.675 149.982C648.443 150.678 648.327 151.548 648.327 152.592L647.805 164.424C647.109 168.832 646.935 173.994 647.283 179.91C647.167 183.274 646.471 185.478 645.195 186.522C643.919 187.682 642.179 188.262 639.975 188.262C638.119 187.682 635.915 186.754 633.363 185.478C632.667 185.13 632.145 184.26 631.797 182.868C631.565 181.36 631.275 180.258 630.927 179.562C629.303 177.938 628.375 176.082 628.143 173.994L626.751 161.814C626.751 160.77 626.867 158.856 627.099 156.072C627.447 153.172 627.563 150.852 627.447 149.112C627.331 147.372 627.737 144.762 628.665 141.282C629.477 139.31 629.883 137.28 629.883 135.192L631.101 121.098C631.101 119.126 631.333 117.618 631.797 116.574C631.797 115.298 631.971 113.848 632.319 112.224C632.087 111.76 632.261 110.89 632.841 109.614L633.537 107.004C633.537 106.192 633.769 104.858 634.233 103.002C634.813 101.146 635.219 99 635.451 96.564C636.031 92.388 638.293 88.328 642.237 84.384C643.165 83.804 644.151 82.354 645.195 80.034C646.123 78.874 647.631 77.83 649.719 76.902C651.923 75.278 654.243 75.452 656.679 77.424C661.203 79.164 663.871 82.354 664.683 86.994L665.205 91.344C665.205 91.924 665.669 93.49 666.597 96.042C666.597 96.97 666.771 98.652 667.119 101.088C667.119 102.48 667.467 104.162 668.163 106.134L670.425 118.662C670.773 119.242 671.179 120.344 671.643 121.968L672.861 126.666C673.093 129.218 673.441 131.306 673.905 132.93C674.485 134.554 675.007 136.294 675.471 138.15C676.051 140.006 676.747 142.384 677.559 145.284C678.371 148.184 679.067 150.91 679.647 153.462C680.343 155.898 681.213 158.102 682.257 160.074C682.489 159.61 682.605 158.16 682.605 155.724L683.127 153.462ZM791.015 187.044L787.535 186.696C785.099 186.232 783.649 185.13 783.185 183.39C783.185 182.926 782.721 182.462 781.793 181.998C781.097 181.998 780.227 181.418 779.183 180.258C778.139 178.982 777.559 176.72 777.443 173.472C777.443 170.108 777.443 166.686 777.443 163.206C777.443 159.726 777.501 157.812 777.617 157.464C777.965 157.464 777.965 156.768 777.617 155.376C777.153 150.852 777.095 147.778 777.443 146.154C777.791 144.414 778.023 138.672 778.139 128.928C778.255 119.184 777.849 114.08 776.921 113.616C776.805 113.384 776.399 113.384 775.703 113.616C775.007 113.732 774.485 113.964 774.137 114.312C773.209 116.168 772.629 117.096 772.397 117.096C771.933 117.56 771.353 118.024 770.657 118.488C768.569 120.924 765.321 121.62 760.913 120.576C757.781 120.112 755.751 119.474 754.823 118.662C754.011 117.85 753.489 116.69 753.257 115.182C753.025 113.558 753.663 112.224 755.171 111.18C758.187 109.092 760.333 106.772 761.609 104.22L764.045 101.436L765.959 100.044C765.959 99.812 766.307 99.406 767.003 98.826C767.699 98.246 768.395 97.666 769.091 97.086C769.903 96.39 770.309 95.752 770.309 95.172L772.049 92.388C773.209 91.228 773.789 90.184 773.789 89.256C773.905 89.256 774.311 88.908 775.007 88.212C775.703 87.516 776.341 86.994 776.921 86.646C777.733 85.022 779.357 82.876 781.793 80.208C783.301 78.004 784.055 76.902 784.055 76.902C784.171 76.786 784.403 76.612 784.751 76.38C785.215 76.148 785.795 75.916 786.491 75.684C787.187 75.336 787.883 74.93 788.579 74.466C789.391 74.002 790.029 73.77 790.493 73.77C791.073 73.654 792.349 73.712 794.321 73.944C796.293 74.176 797.279 74.408 797.279 74.64C797.279 74.872 797.453 75.278 797.801 75.858C798.149 76.322 798.555 76.554 799.019 76.554C799.483 76.554 800.005 76.96 800.585 77.772C801.049 77.772 802.093 78.178 803.717 78.99C804.645 80.15 805.167 81.02 805.283 81.6C804.587 81.948 804.239 82.644 804.239 83.688L802.673 97.956C801.165 104.452 800.063 119.706 799.367 143.718C798.903 147.198 798.671 149.982 798.671 152.07C798.671 154.042 798.439 157.174 797.975 161.466C797.511 165.758 797.279 169.992 797.279 174.168C797.279 178.344 797.163 181.128 796.931 182.52C796.119 185.884 794.147 187.392 791.015 187.044ZM898.994 140.238L899.342 134.67C899.806 130.61 899.516 124.81 898.472 117.27C898.356 113.21 897.892 110.136 897.08 108.048C896.268 105.844 894.586 102.77 892.034 98.826C889.946 96.97 888.902 95.752 888.902 95.172C887.626 93.896 886.118 94.824 884.378 97.956C883.914 99.696 881.652 104.684 877.592 112.92C877.94 113.848 877.592 114.834 876.548 115.878C876.316 116.226 876.2 116.922 876.2 117.966C876.548 118.662 876.664 119.648 876.548 120.924C876.2 122.084 875.852 126.956 875.504 135.54C875.504 140.412 875.91 143.892 876.722 145.98C876.722 149.924 876.954 153.056 877.418 155.376C877.302 158.624 877.534 161.176 878.114 163.032C879.738 166.86 881.478 168.774 883.334 168.774C885.19 168.774 887.22 167.266 889.424 164.25C891.744 161.234 893.542 157.522 894.818 153.114C894.702 152.186 894.876 151.722 895.34 151.722C895.34 150.91 895.63 149.576 896.21 147.72C896.906 145.748 897.254 144.414 897.254 143.718L898.994 140.238ZM858.452 103.524L858.974 99.87C858.974 99.058 859.554 97.956 860.714 96.564C861.41 94.708 861.7 93.49 861.584 92.91C861.584 92.33 862.164 90.822 863.324 88.386C864.6 85.834 865.76 84.094 866.804 83.166C867.848 82.122 868.834 80.904 869.762 79.512C869.762 78.932 870.11 78.294 870.806 77.598C871.618 76.902 872.43 76.496 873.242 76.38C875.91 75.452 877.94 75.22 879.332 75.684C882.928 77.076 885.074 77.366 885.77 76.554C886.002 76.206 887.162 75.858 889.25 75.51C891.454 75.046 892.962 74.872 893.774 74.988C894.702 74.988 895.688 75.394 896.732 76.206C900.792 78.178 904.794 82.006 908.738 87.69C912.798 93.374 915.64 99.348 917.264 105.612C919.816 113.5 920.686 121.272 919.874 128.928C919.062 137.628 917.206 146.386 914.306 155.202C911.406 164.018 909.608 169.064 908.912 170.34C908.332 171.616 907.81 172.602 907.346 173.298C906.998 173.878 906.766 174.574 906.65 175.386C906.534 176.082 905.664 177.358 904.04 179.214C902.416 181.07 901.198 182.114 900.386 182.346C897.138 184.898 894.238 186.232 891.686 186.348C891.106 186.464 890.12 186.464 888.728 186.348C887.452 186.348 886.292 186.348 885.248 186.348C884.204 186.348 883.392 186.464 882.812 186.696C880.724 186.464 879.042 186.348 877.766 186.348C876.606 186.464 874.924 186 872.72 184.956C869.24 182.752 866.456 180.026 864.368 176.778C863.904 174.806 863.266 173.414 862.454 172.602L860.714 168.774C859.438 167.962 858.684 165.468 858.452 161.292C854.856 150.852 853.986 134.264 855.842 111.528C855.842 110.02 856.248 109.266 857.06 109.266C857.408 108.686 857.524 107.99 857.408 107.178C857.408 106.366 857.756 105.148 858.452 103.524ZM1003.08 187.044L999.598 186.696C997.162 186.232 995.712 185.13 995.248 183.39C995.248 182.926 994.784 182.462 993.856 181.998C993.16 181.998 992.29 181.418 991.246 180.258C990.202 178.982 989.622 176.72 989.506 173.472C989.506 170.108 989.506 166.686 989.506 163.206C989.506 159.726 989.564 157.812 989.68 157.464C990.028 157.464 990.028 156.768 989.68 155.376C989.216 150.852 989.158 147.778 989.506 146.154C989.854 144.414 990.086 138.672 990.202 128.928C990.318 119.184 989.912 114.08 988.984 113.616C988.868 113.384 988.462 113.384 987.766 113.616C987.07 113.732 986.548 113.964 986.2 114.312C985.272 116.168 984.692 117.096 984.46 117.096C983.996 117.56 983.416 118.024 982.72 118.488C980.632 120.924 977.384 121.62 972.976 120.576C969.844 120.112 967.814 119.474 966.886 118.662C966.074 117.85 965.552 116.69 965.32 115.182C965.088 113.558 965.726 112.224 967.234 111.18C970.25 109.092 972.396 106.772 973.672 104.22L976.108 101.436L978.022 100.044C978.022 99.812 978.37 99.406 979.066 98.826C979.762 98.246 980.458 97.666 981.154 97.086C981.966 96.39 982.372 95.752 982.372 95.172L984.112 92.388C985.272 91.228 985.852 90.184 985.852 89.256C985.968 89.256 986.374 88.908 987.07 88.212C987.766 87.516 988.404 86.994 988.984 86.646C989.796 85.022 991.42 82.876 993.856 80.208C995.364 78.004 996.118 76.902 996.118 76.902C996.234 76.786 996.466 76.612 996.814 76.38C997.278 76.148 997.858 75.916 998.554 75.684C999.25 75.336 999.946 74.93 1000.64 74.466C1001.45 74.002 1002.09 73.77 1002.56 73.77C1003.14 73.654 1004.41 73.712 1006.38 73.944C1008.36 74.176 1009.34 74.408 1009.34 74.64C1009.34 74.872 1009.52 75.278 1009.86 75.858C1010.21 76.322 1010.62 76.554 1011.08 76.554C1011.55 76.554 1012.07 76.96 1012.65 77.772C1013.11 77.772 1014.16 78.178 1015.78 78.99C1016.71 80.15 1017.23 81.02 1017.35 81.6C1016.65 81.948 1016.3 82.644 1016.3 83.688L1014.74 97.956C1013.23 104.452 1012.13 119.706 1011.43 143.718C1010.97 147.198 1010.73 149.982 1010.73 152.07C1010.73 154.042 1010.5 157.174 1010.04 161.466C1009.57 165.758 1009.34 169.992 1009.34 174.168C1009.34 178.344 1009.23 181.128 1008.99 182.52C1008.18 185.884 1006.21 187.392 1003.08 187.044Z" fill="white"/>
</svg>
